<?xml version="1.0" standalone="no"?><!-- Generator: Gravit.io --><svg xmlns="http://www.w3.org/2000/svg" xmlns:xlink="http://www.w3.org/1999/xlink" style="isolation:isolate" viewBox="0 0 24 8"><defs><clipPath id="_clipPath_HGINxbVcUmr2LN8PdpOTLFFMp181IU0I"><rect width="24.001" height="8"/></clipPath></defs><g clip-path="url(#_clipPath_HGINxbVcUmr2LN8PdpOTLFFMp181IU0I)"><path d=" M 17.701 0 C 14.465 0 14.176 0.934 12 0.923 C 9.824 0.934 9.539 0 6.299 0 C 4.18 0 1.902 0.332 0 0.715 L 0 2.177 C 0.328 2.453 0.999 2.624 1.001 3.595 C 1.007 7.422 2.589 7.982 5.604 8 C 9.654 8 10.201 7.073 10.877 3.852 C 11.027 3.137 11.39 2.704 11.999 2.704 C 12.608 2.704 12.971 3.138 13.121 3.852 C 13.799 7.073 14.346 8 18.396 8 C 21.412 7.982 22.994 7.422 23 3.595 C 23.002 2.624 23.673 2.453 24.001 2.177 L 24.001 0.715 C 22.098 0.332 19.82 0 17.701 0 Z  M 9.906 3.584 C 9.346 6.246 9.218 7.026 5.609 7 C 2.77 6.983 2 6.43 2 3.574 C 2 2.058 2 1 6.299 1 C 8.224 1 9.405 1.441 9.81 2.028 C 10.025 2.341 10.058 2.864 9.906 3.584 Z  M 18.391 7 C 14.783 7.026 14.655 6.246 14.094 3.584 C 13.943 2.864 13.975 2.34 14.191 2.028 C 14.595 1.441 15.776 1 17.701 1 C 22 1 22 2.058 22 3.574 C 22 6.43 21.23 6.983 18.391 7 Z  M 17.621 1.85 C 21.059 1.85 21.059 2.697 21.059 3.91 C 21.059 4.142 21.047 4.342 21.034 4.538 C 20.531 2.812 19.719 2.406 17.621 1.85 Z  M 2.966 4.538 C 2.952 4.342 2.94 4.142 2.94 3.91 C 2.94 2.697 2.94 1.85 6.378 1.85 C 4.281 2.406 3.469 2.812 2.966 4.538 Z " fill="rgb(0,0,0)"/></g></svg>
