<?xml version="1.0" standalone="no"?><!-- Generator: Gravit.io --><svg xmlns="http://www.w3.org/2000/svg" xmlns:xlink="http://www.w3.org/1999/xlink" style="isolation:isolate" viewBox="0 0 100 100" width="100" height="100"><defs><clipPath id="_clipPath_zembbOCX58xlL5tnU3Iv7nALReGFmref"><rect width="100" height="100"/></clipPath></defs><g clip-path="url(#_clipPath_zembbOCX58xlL5tnU3Iv7nALReGFmref)"><g style="opacity:0.4;"><g opacity="0.5"><path d=" M 96 95 L 100 95 L 100 96 L 96 96 L 96 100 L 95 100 L 95 96 L 86 96 L 86 100 L 85 100 L 85 96 L 76 96 L 76 100 L 75 100 L 75 96 L 66 96 L 66 100 L 65 100 L 65 96 L 56 96 L 56 100 L 55 100 L 55 96 L 46 96 L 46 100 L 45 100 L 45 96 L 36 96 L 36 100 L 35 100 L 35 96 L 26 96 L 26 100 L 25 100 L 25 96 L 16 96 L 16 100 L 15 100 L 15 96 L 0 96 L 0 95 L 15 95 L 15 86 L 0 86 L 0 85 L 15 85 L 15 76 L 0 76 L 0 75 L 15 75 L 15 66 L 0 66 L 0 65 L 15 65 L 15 56 L 0 56 L 0 55 L 15 55 L 15 46 L 0 46 L 0 45 L 15 45 L 15 36 L 0 36 L 0 35 L 15 35 L 15 26 L 0 26 L 0 25 L 15 25 L 15 16 L 0 16 L 0 15 L 15 15 L 15 0 L 16 0 L 16 15 L 25 15 L 25 0 L 26 0 L 26 15 L 35 15 L 35 0 L 36 0 L 36 15 L 45 15 L 45 0 L 46 0 L 46 15 L 55 15 L 55 0 L 56 0 L 56 15 L 65 15 L 65 0 L 66 0 L 66 15 L 75 15 L 75 0 L 76 0 L 76 15 L 85 15 L 85 0 L 86 0 L 86 15 L 95 15 L 95 0 L 96 0 L 96 15 L 100 15 L 100 16 L 96 16 L 96 25 L 100 25 L 100 26 L 96 26 L 96 35 L 100 35 L 100 36 L 96 36 L 96 45 L 100 45 L 100 46 L 96 46 L 96 55 L 100 55 L 100 56 L 96 56 L 96 65 L 100 65 L 100 66 L 96 66 L 96 75 L 100 75 L 100 76 L 96 76 L 96 85 L 100 85 L 100 86 L 96 86 L 96 95 L 96 95 Z  M 95 95 L 95 86 L 86 86 L 86 95 L 95 95 L 95 95 Z  M 85 95 L 85 86 L 76 86 L 76 95 L 85 95 L 85 95 Z  M 75 95 L 75 86 L 66 86 L 66 95 L 75 95 L 75 95 Z  M 65 95 L 65 86 L 56 86 L 56 95 L 65 95 L 65 95 Z  M 55 95 L 55 86 L 46 86 L 46 95 L 55 95 L 55 95 Z  M 45 95 L 45 86 L 36 86 L 36 95 L 45 95 L 45 95 Z  M 35 95 L 35 86 L 26 86 L 26 95 L 35 95 L 35 95 Z  M 25 95 L 25 86 L 16 86 L 16 95 L 25 95 L 25 95 Z  M 16 85 L 25 85 L 25 76 L 16 76 L 16 85 L 16 85 Z  M 26 85 L 35 85 L 35 76 L 26 76 L 26 85 L 26 85 Z  M 36 85 L 45 85 L 45 76 L 36 76 L 36 85 L 36 85 Z  M 46 85 L 55 85 L 55 76 L 46 76 L 46 85 L 46 85 Z  M 56 85 L 65 85 L 65 76 L 56 76 L 56 85 L 56 85 Z  M 66 85 L 75 85 L 75 76 L 66 76 L 66 85 L 66 85 Z  M 76 85 L 85 85 L 85 76 L 76 76 L 76 85 L 76 85 Z  M 86 85 L 95 85 L 95 76 L 86 76 L 86 85 L 86 85 Z  M 95 75 L 95 66 L 86 66 L 86 75 L 95 75 L 95 75 Z  M 85 75 L 85 66 L 76 66 L 76 75 L 85 75 L 85 75 Z  M 75 75 L 75 66 L 66 66 L 66 75 L 75 75 L 75 75 Z  M 65 75 L 65 66 L 56 66 L 56 75 L 65 75 L 65 75 Z  M 55 75 L 55 66 L 46 66 L 46 75 L 55 75 L 55 75 Z  M 45 75 L 45 66 L 36 66 L 36 75 L 45 75 L 45 75 Z  M 35 75 L 35 66 L 26 66 L 26 75 L 35 75 L 35 75 Z  M 25 75 L 25 66 L 16 66 L 16 75 L 25 75 L 25 75 Z  M 16 65 L 25 65 L 25 56 L 16 56 L 16 65 L 16 65 Z  M 26 65 L 35 65 L 35 56 L 26 56 L 26 65 L 26 65 Z  M 36 65 L 45 65 L 45 56 L 36 56 L 36 65 L 36 65 Z  M 46 65 L 55 65 L 55 56 L 46 56 L 46 65 L 46 65 Z  M 56 65 L 65 65 L 65 56 L 56 56 L 56 65 L 56 65 Z  M 66 65 L 75 65 L 75 56 L 66 56 L 66 65 L 66 65 Z  M 76 65 L 85 65 L 85 56 L 76 56 L 76 65 L 76 65 Z  M 86 65 L 95 65 L 95 56 L 86 56 L 86 65 L 86 65 Z  M 95 55 L 95 46 L 86 46 L 86 55 L 95 55 L 95 55 Z  M 85 55 L 85 46 L 76 46 L 76 55 L 85 55 L 85 55 Z  M 75 55 L 75 46 L 66 46 L 66 55 L 75 55 L 75 55 Z  M 65 55 L 65 46 L 56 46 L 56 55 L 65 55 L 65 55 Z  M 55 55 L 55 46 L 46 46 L 46 55 L 55 55 L 55 55 Z  M 45 55 L 45 46 L 36 46 L 36 55 L 45 55 L 45 55 Z  M 35 55 L 35 46 L 26 46 L 26 55 L 35 55 L 35 55 Z  M 25 55 L 25 46 L 16 46 L 16 55 L 25 55 L 25 55 Z  M 16 45 L 25 45 L 25 36 L 16 36 L 16 45 L 16 45 Z  M 26 45 L 35 45 L 35 36 L 26 36 L 26 45 L 26 45 Z  M 36 45 L 45 45 L 45 36 L 36 36 L 36 45 L 36 45 Z  M 46 45 L 55 45 L 55 36 L 46 36 L 46 45 L 46 45 Z  M 56 45 L 65 45 L 65 36 L 56 36 L 56 45 L 56 45 Z  M 66 45 L 75 45 L 75 36 L 66 36 L 66 45 L 66 45 Z  M 76 45 L 85 45 L 85 36 L 76 36 L 76 45 L 76 45 Z  M 86 45 L 95 45 L 95 36 L 86 36 L 86 45 L 86 45 Z  M 95 35 L 95 26 L 86 26 L 86 35 L 95 35 L 95 35 Z  M 85 35 L 85 26 L 76 26 L 76 35 L 85 35 L 85 35 Z  M 75 35 L 75 26 L 66 26 L 66 35 L 75 35 L 75 35 Z  M 65 35 L 65 26 L 56 26 L 56 35 L 65 35 L 65 35 Z  M 55 35 L 55 26 L 46 26 L 46 35 L 55 35 L 55 35 Z  M 45 35 L 45 26 L 36 26 L 36 35 L 45 35 L 45 35 Z  M 35 35 L 35 26 L 26 26 L 26 35 L 35 35 L 35 35 Z  M 25 35 L 25 26 L 16 26 L 16 35 L 25 35 L 25 35 Z  M 16 25 L 25 25 L 25 16 L 16 16 L 16 25 L 16 25 Z  M 26 25 L 35 25 L 35 16 L 26 16 L 26 25 L 26 25 Z  M 36 25 L 45 25 L 45 16 L 36 16 L 36 25 L 36 25 Z  M 46 25 L 55 25 L 55 16 L 46 16 L 46 25 L 46 25 Z  M 56 25 L 65 25 L 65 16 L 56 16 L 56 25 L 56 25 Z  M 66 25 L 75 25 L 75 16 L 66 16 L 66 25 L 66 25 Z  M 76 25 L 85 25 L 85 16 L 76 16 L 76 25 L 76 25 Z  M 86 25 L 95 25 L 95 16 L 86 16 L 86 25 L 86 25 Z " fill-rule="evenodd" fill="rgb(52,152,219)"/></g><path d=" M 6 5 L 6 0 L 5 0 L 5 5 L 0 5 L 0 6 L 5 6 L 5 100 L 6 100 L 6 6 L 100 6 L 100 5 L 6 5 L 6 5 Z " fill-rule="evenodd" fill="rgb(52,152,219)"/></g></g></svg>