<?xml version="1.0" standalone="no"?><!-- Generator: Gravit.io --><svg xmlns="http://www.w3.org/2000/svg" xmlns:xlink="http://www.w3.org/1999/xlink" style="isolation:isolate" viewBox="0 0 572 63" width="572" height="63"><defs><clipPath id="_clipPath_eekHVurB7yBA1GD9MOxbAuWofTloNhmb"><rect width="572" height="63"/></clipPath></defs><g clip-path="url(#_clipPath_eekHVurB7yBA1GD9MOxbAuWofTloNhmb)"><rect width="572" height="63" style="fill:rgb(236,240,241)" fill-opacity="0"/><path d=" M 531.085 42.764 L 548.372 42.764 L 548.372 48.639 L 524.365 48.639 L 524.365 14.167 L 547.934 14.167 L 547.934 20.042 L 531.085 20.042 L 531.085 28.344 L 545.645 28.344 L 545.645 33.782 L 531.085 33.782 L 531.085 42.764 L 531.085 42.764 Z  M 555.774 48.639 L 550.417 48.639 L 550.417 41.647 L 555.774 41.647 L 555.774 48.639 L 555.774 48.639 Z  M 498.508 48.639 L 491.788 48.639 L 491.788 14.167 L 506.445 14.167 L 506.445 14.167 Q 508.831 14.167 510.852 15.162 L 510.852 15.162 L 510.852 15.162 Q 512.873 16.158 514.334 17.784 L 514.334 17.784 L 514.334 17.784 Q 515.795 19.411 516.623 21.474 L 516.623 21.474 L 516.623 21.474 Q 517.45 23.537 517.45 25.625 L 517.45 25.625 L 517.45 25.625 Q 517.45 27.81 516.671 29.874 L 516.671 29.874 L 516.671 29.874 Q 515.892 31.937 514.48 33.539 L 514.48 33.539 L 514.48 33.539 Q 513.068 35.141 511.071 36.112 L 511.071 36.112 L 511.071 36.112 Q 509.075 37.083 506.689 37.083 L 506.689 37.083 L 498.508 37.083 L 498.508 48.639 L 498.508 48.639 Z  M 498.508 20.042 L 498.508 31.209 L 506.299 31.209 L 506.299 31.209 Q 508.15 31.209 509.391 29.704 L 509.391 29.704 L 509.391 29.704 Q 510.633 28.198 510.633 25.625 L 510.633 25.625 L 510.633 25.625 Q 510.633 24.314 510.243 23.27 L 510.243 23.27 L 510.243 23.27 Q 509.854 22.227 509.221 21.498 L 509.221 21.498 L 509.221 21.498 Q 508.588 20.77 507.736 20.406 L 507.736 20.406 L 507.736 20.406 Q 506.883 20.042 506.007 20.042 L 506.007 20.042 L 498.508 20.042 L 498.508 20.042 Z  M 520.421 48.639 L 515.064 48.639 L 515.064 41.647 L 520.421 41.647 L 520.421 48.639 L 520.421 48.639 Z  M 446.16 48.639 L 433.597 48.639 L 433.597 14.167 L 446.16 14.167 L 446.16 14.167 Q 450.397 14.167 453.586 15.526 L 453.586 15.526 L 453.586 15.526 Q 456.776 16.886 458.918 19.216 L 458.918 19.216 L 458.918 19.216 Q 461.061 21.547 462.132 24.678 L 462.132 24.678 L 462.132 24.678 Q 463.203 27.81 463.203 31.354 L 463.203 31.354 L 463.203 31.354 Q 463.203 35.287 462.01 38.467 L 462.01 38.467 L 462.01 38.467 Q 460.817 41.647 458.577 43.905 L 458.577 43.905 L 458.577 43.905 Q 456.337 46.163 453.197 47.401 L 453.197 47.401 L 453.197 47.401 Q 450.056 48.639 446.16 48.639 L 446.16 48.639 L 446.16 48.639 Z  M 456.435 31.354 L 456.435 31.354 L 456.435 31.354 Q 456.435 28.878 455.753 26.79 L 455.753 26.79 L 455.753 26.79 Q 455.071 24.703 453.757 23.198 L 453.757 23.198 L 453.757 23.198 Q 452.442 21.693 450.518 20.867 L 450.518 20.867 L 450.518 20.867 Q 448.595 20.042 446.16 20.042 L 446.16 20.042 L 440.317 20.042 L 440.317 42.764 L 446.16 42.764 L 446.16 42.764 Q 448.643 42.764 450.567 41.89 L 450.567 41.89 L 450.567 41.89 Q 452.49 41.016 453.781 39.487 L 453.781 39.487 L 453.781 39.487 Q 455.071 37.957 455.753 35.87 L 455.753 35.87 L 455.753 35.87 Q 456.435 33.782 456.435 31.354 Z  M 469.729 48.639 L 464.372 48.639 L 464.372 41.647 L 469.729 41.647 L 469.729 48.639 L 469.729 48.639 Z  M 476.546 54.222 L 473.624 54.222 L 474.939 48.445 L 472.894 48.445 L 472.894 41.647 L 478.543 41.647 L 478.543 48.445 L 476.546 54.222 L 476.546 54.222 Z  M 376.915 48.639 L 370.195 48.639 L 370.195 14.167 L 384.852 14.167 L 384.852 14.167 Q 387.238 14.167 389.259 15.162 L 389.259 15.162 L 389.259 15.162 Q 391.28 16.158 392.741 17.784 L 392.741 17.784 L 392.741 17.784 Q 394.202 19.411 395.03 21.474 L 395.03 21.474 L 395.03 21.474 Q 395.857 23.537 395.857 25.625 L 395.857 25.625 L 395.857 25.625 Q 395.857 27.81 395.078 29.874 L 395.078 29.874 L 395.078 29.874 Q 394.299 31.937 392.887 33.539 L 392.887 33.539 L 392.887 33.539 Q 391.475 35.141 389.478 36.112 L 389.478 36.112 L 389.478 36.112 Q 387.482 37.083 385.096 37.083 L 385.096 37.083 L 376.915 37.083 L 376.915 48.639 L 376.915 48.639 Z  M 376.915 20.042 L 376.915 31.209 L 384.706 31.209 L 384.706 31.209 Q 386.557 31.209 387.798 29.704 L 387.798 29.704 L 387.798 29.704 Q 389.04 28.198 389.04 25.625 L 389.04 25.625 L 389.04 25.625 Q 389.04 24.314 388.65 23.27 L 388.65 23.27 L 388.65 23.27 Q 388.261 22.227 387.628 21.498 L 387.628 21.498 L 387.628 21.498 Q 386.995 20.77 386.143 20.406 L 386.143 20.406 L 386.143 20.406 Q 385.29 20.042 384.414 20.042 L 384.414 20.042 L 376.915 20.042 L 376.915 20.042 Z  M 421.179 32.762 L 421.179 48.639 L 414.654 48.639 L 414.654 34.365 L 414.654 34.365 Q 414.654 31.354 413.534 29.922 L 413.534 29.922 L 413.534 29.922 Q 412.414 28.49 410.369 28.49 L 410.369 28.49 L 410.369 28.49 Q 409.492 28.49 408.518 28.878 L 408.518 28.878 L 408.518 28.878 Q 407.544 29.267 406.668 29.971 L 406.668 29.971 L 406.668 29.971 Q 405.791 30.675 405.061 31.646 L 405.061 31.646 L 405.061 31.646 Q 404.33 32.617 403.99 33.782 L 403.99 33.782 L 403.99 48.639 L 397.464 48.639 L 397.464 13.196 L 403.99 13.196 L 403.99 27.907 L 403.99 27.907 Q 405.402 25.431 407.812 24.096 L 407.812 24.096 L 407.812 24.096 Q 410.223 22.761 413.144 22.761 L 413.144 22.761 L 413.144 22.761 Q 415.628 22.761 417.186 23.61 L 417.186 23.61 L 417.186 23.61 Q 418.744 24.46 419.621 25.868 L 419.621 25.868 L 419.621 25.868 Q 420.497 27.276 420.838 29.072 L 420.838 29.072 L 420.838 29.072 Q 421.179 30.869 421.179 32.762 L 421.179 32.762 L 421.179 32.762 Z  M 429.652 48.639 L 424.296 48.639 L 424.296 41.647 L 429.652 41.647 L 429.652 48.639 L 429.652 48.639 Z  M 229.367 14.167 L 229.367 20.042 L 218.313 20.042 L 218.313 48.639 L 211.642 48.639 L 211.642 20.042 L 200.588 20.042 L 200.588 14.167 L 229.367 14.167 L 229.367 14.167 Z  M 232.191 49.124 L 232.191 49.124 L 232.191 49.124 Q 230.341 49.124 228.734 48.517 L 228.734 48.517 L 228.734 48.517 Q 227.127 47.911 225.958 46.818 L 225.958 46.818 L 225.958 46.818 Q 224.79 45.726 224.132 44.269 L 224.132 44.269 L 224.132 44.269 Q 223.475 42.813 223.475 41.065 L 223.475 41.065 L 223.475 41.065 Q 223.475 39.268 224.278 37.739 L 224.278 37.739 L 224.278 37.739 Q 225.082 36.21 226.518 35.141 L 226.518 35.141 L 226.518 35.141 Q 227.955 34.073 229.951 33.466 L 229.951 33.466 L 229.951 33.466 Q 231.948 32.859 234.334 32.859 L 234.334 32.859 L 234.334 32.859 Q 236.038 32.859 237.67 33.151 L 237.67 33.151 L 237.67 33.151 Q 239.301 33.442 240.567 33.976 L 240.567 33.976 L 240.567 32.52 L 240.567 32.52 Q 240.567 29.995 239.13 28.635 L 239.13 28.635 L 239.13 28.635 Q 237.694 27.276 234.87 27.276 L 234.87 27.276 L 234.87 27.276 Q 232.824 27.276 230.877 28.004 L 230.877 28.004 L 230.877 28.004 Q 228.929 28.733 226.883 30.141 L 226.883 30.141 L 224.887 26.014 L 224.887 26.014 Q 229.805 22.761 235.503 22.761 L 235.503 22.761 L 235.503 22.761 Q 241.005 22.761 244.049 25.455 L 244.049 25.455 L 244.049 25.455 Q 247.092 28.15 247.092 33.248 L 247.092 33.248 L 247.092 41.162 L 247.092 41.162 Q 247.092 42.181 247.457 42.618 L 247.457 42.618 L 247.457 42.618 Q 247.823 43.055 248.65 43.104 L 248.65 43.104 L 248.65 48.639 L 248.65 48.639 Q 246.995 48.979 245.777 48.979 L 245.777 48.979 L 245.777 48.979 Q 243.927 48.979 242.929 48.153 L 242.929 48.153 L 242.929 48.153 Q 241.93 47.328 241.687 45.968 L 241.687 45.968 L 241.541 44.56 L 241.541 44.56 Q 239.837 46.794 237.402 47.959 L 237.402 47.959 L 237.402 47.959 Q 234.967 49.124 232.191 49.124 Z  M 234.042 44.366 L 234.042 44.366 L 234.042 44.366 Q 235.697 44.366 237.183 43.784 L 237.183 43.784 L 237.183 43.784 Q 238.668 43.201 239.496 42.23 L 239.496 42.23 L 239.496 42.23 Q 240.567 41.405 240.567 40.385 L 240.567 40.385 L 240.567 37.472 L 240.567 37.472 Q 239.398 37.035 238.035 36.768 L 238.035 36.768 L 238.035 36.768 Q 236.671 36.501 235.405 36.501 L 235.405 36.501 L 235.405 36.501 Q 232.873 36.501 231.266 37.642 L 231.266 37.642 L 231.266 37.642 Q 229.659 38.783 229.659 40.531 L 229.659 40.531 L 229.659 40.531 Q 229.659 42.181 230.925 43.274 L 230.925 43.274 L 230.925 43.274 Q 232.191 44.366 234.042 44.366 Z  M 250.696 42.764 L 250.696 13.196 L 257.221 13.196 L 257.221 40.482 L 257.221 40.482 Q 257.221 41.89 257.903 42.667 L 257.903 42.667 L 257.903 42.667 Q 258.584 43.444 259.85 43.444 L 259.85 43.444 L 259.85 43.444 Q 260.435 43.444 261.141 43.25 L 261.141 43.25 L 261.141 43.25 Q 261.847 43.055 262.48 42.764 L 262.48 42.764 L 263.357 47.716 L 263.357 47.716 Q 262.042 48.348 260.289 48.687 L 260.289 48.687 L 260.289 48.687 Q 258.536 49.027 257.123 49.027 L 257.123 49.027 L 257.123 49.027 Q 254.056 49.027 252.376 47.401 L 252.376 47.401 L 252.376 47.401 Q 250.696 45.774 250.696 42.764 L 250.696 42.764 L 250.696 42.764 Z  M 278.257 49.124 L 278.257 49.124 L 278.257 49.124 Q 275.336 49.124 273.047 47.813 L 273.047 47.813 L 273.047 47.813 Q 270.758 46.503 269.443 44.221 L 269.443 44.221 L 269.443 48.639 L 263.746 48.639 L 263.746 13.196 L 270.271 13.196 L 270.271 27.664 L 270.271 27.664 Q 271.635 25.334 273.85 24.047 L 273.85 24.047 L 273.85 24.047 Q 276.066 22.761 279.037 22.761 L 279.037 22.761 L 279.037 22.761 Q 281.52 22.761 283.565 23.829 L 283.565 23.829 L 283.565 23.829 Q 285.61 24.897 287.096 26.693 L 287.096 26.693 L 287.096 26.693 Q 288.581 28.49 289.384 30.917 L 289.384 30.917 L 289.384 30.917 Q 290.188 33.345 290.188 36.015 L 290.188 36.015 L 290.188 36.015 Q 290.188 38.783 289.287 41.162 L 289.287 41.162 L 289.287 41.162 Q 288.386 43.541 286.779 45.313 L 286.779 45.313 L 286.779 45.313 Q 285.172 47.085 282.981 48.105 L 282.981 48.105 L 282.981 48.105 Q 280.79 49.124 278.257 49.124 Z  M 276.456 43.589 L 276.456 43.589 L 276.456 43.589 Q 278.014 43.589 279.329 42.983 L 279.329 42.983 L 279.329 42.983 Q 280.643 42.376 281.569 41.356 L 281.569 41.356 L 281.569 41.356 Q 282.494 40.336 283.005 38.977 L 283.005 38.977 L 283.005 38.977 Q 283.517 37.618 283.517 36.064 L 283.517 36.064 L 283.517 36.064 Q 283.517 34.51 283.03 33.102 L 283.03 33.102 L 283.03 33.102 Q 282.543 31.694 281.642 30.626 L 281.642 30.626 L 281.642 30.626 Q 280.741 29.558 279.523 28.927 L 279.523 28.927 L 279.523 28.927 Q 278.306 28.296 276.845 28.296 L 276.845 28.296 L 276.845 28.296 Q 274.654 28.296 272.925 29.728 L 272.925 29.728 L 272.925 29.728 Q 271.197 31.16 270.271 33.248 L 270.271 33.248 L 270.271 39.317 L 270.271 39.317 Q 270.612 40.288 271.27 41.065 L 271.27 41.065 L 271.27 41.065 Q 271.927 41.842 272.755 42.4 L 272.755 42.4 L 272.755 42.4 Q 273.583 42.958 274.557 43.274 L 274.557 43.274 L 274.557 43.274 Q 275.53 43.589 276.456 43.589 Z  M 303.969 49.124 L 303.969 49.124 L 303.969 49.124 Q 300.852 49.124 298.369 48.056 L 298.369 48.056 L 298.369 48.056 Q 295.885 46.988 294.157 45.167 L 294.157 45.167 L 294.157 45.167 Q 292.428 43.347 291.503 40.968 L 291.503 40.968 L 291.503 40.968 Q 290.577 38.589 290.577 35.967 L 290.577 35.967 L 290.577 35.967 Q 290.577 33.296 291.503 30.917 L 291.503 30.917 L 291.503 30.917 Q 292.428 28.538 294.157 26.718 L 294.157 26.718 L 294.157 26.718 Q 295.885 24.897 298.369 23.829 L 298.369 23.829 L 298.369 23.829 Q 300.852 22.761 303.969 22.761 L 303.969 22.761 L 303.969 22.761 Q 307.085 22.761 309.544 23.829 L 309.544 23.829 L 309.544 23.829 Q 312.003 24.897 313.732 26.718 L 313.732 26.718 L 313.732 26.718 Q 315.461 28.538 316.386 30.917 L 316.386 30.917 L 316.386 30.917 Q 317.311 33.296 317.311 35.967 L 317.311 35.967 L 317.311 35.967 Q 317.311 38.589 316.386 40.968 L 316.386 40.968 L 316.386 40.968 Q 315.461 43.347 313.757 45.167 L 313.757 45.167 L 313.757 45.167 Q 312.052 46.988 309.569 48.056 L 309.569 48.056 L 309.569 48.056 Q 307.085 49.124 303.969 49.124 Z  M 297.297 35.967 L 297.297 35.967 L 297.297 35.967 Q 297.297 37.666 297.809 39.05 L 297.809 39.05 L 297.809 39.05 Q 298.32 40.434 299.221 41.453 L 299.221 41.453 L 299.221 41.453 Q 300.122 42.473 301.339 43.031 L 301.339 43.031 L 301.339 43.031 Q 302.557 43.589 303.969 43.589 L 303.969 43.589 L 303.969 43.589 Q 305.381 43.589 306.598 43.031 L 306.598 43.031 L 306.598 43.031 Q 307.816 42.473 308.717 41.453 L 308.717 41.453 L 308.717 41.453 Q 309.617 40.434 310.129 39.026 L 310.129 39.026 L 310.129 39.026 Q 310.64 37.618 310.64 35.918 L 310.64 35.918 L 310.64 35.918 Q 310.64 34.267 310.129 32.859 L 310.129 32.859 L 310.129 32.859 Q 309.617 31.451 308.717 30.432 L 308.717 30.432 L 308.717 30.432 Q 307.816 29.412 306.598 28.854 L 306.598 28.854 L 306.598 28.854 Q 305.381 28.296 303.969 28.296 L 303.969 28.296 L 303.969 28.296 Q 302.557 28.296 301.339 28.878 L 301.339 28.878 L 301.339 28.878 Q 300.122 29.461 299.221 30.48 L 299.221 30.48 L 299.221 30.48 Q 298.32 31.5 297.809 32.908 L 297.809 32.908 L 297.809 32.908 Q 297.297 34.316 297.297 35.967 Z  M 332.894 42.181 L 334.209 47.328 L 334.209 47.328 Q 332.894 47.911 330.995 48.493 L 330.995 48.493 L 330.995 48.493 Q 329.096 49.076 327.002 49.076 L 327.002 49.076 L 327.002 49.076 Q 325.638 49.076 324.445 48.736 L 324.445 48.736 L 324.445 48.736 Q 323.252 48.396 322.351 47.644 L 322.351 47.644 L 322.351 47.644 Q 321.45 46.891 320.915 45.701 L 320.915 45.701 L 320.915 45.701 Q 320.379 44.512 320.379 42.813 L 320.379 42.813 L 320.379 28.198 L 317.019 28.198 L 317.019 23.198 L 320.379 23.198 L 320.379 14.944 L 326.904 14.944 L 326.904 23.198 L 332.261 23.198 L 332.261 28.198 L 326.904 28.198 L 326.904 40.628 L 326.904 40.628 Q 326.904 41.987 327.61 42.546 L 327.61 42.546 L 327.61 42.546 Q 328.317 43.104 329.339 43.104 L 329.339 43.104 L 329.339 43.104 Q 330.362 43.104 331.336 42.764 L 331.336 42.764 L 331.336 42.764 Q 332.31 42.424 332.894 42.181 L 332.894 42.181 L 332.894 42.181 Z  M 349.158 42.181 L 350.473 47.328 L 350.473 47.328 Q 349.158 47.911 347.259 48.493 L 347.259 48.493 L 347.259 48.493 Q 345.36 49.076 343.266 49.076 L 343.266 49.076 L 343.266 49.076 Q 341.903 49.076 340.71 48.736 L 340.71 48.736 L 340.71 48.736 Q 339.517 48.396 338.616 47.644 L 338.616 47.644 L 338.616 47.644 Q 337.715 46.891 337.179 45.701 L 337.179 45.701 L 337.179 45.701 Q 336.643 44.512 336.643 42.813 L 336.643 42.813 L 336.643 28.198 L 333.283 28.198 L 333.283 23.198 L 336.643 23.198 L 336.643 14.944 L 343.169 14.944 L 343.169 23.198 L 348.525 23.198 L 348.525 28.198 L 343.169 28.198 L 343.169 40.628 L 343.169 40.628 Q 343.169 41.987 343.875 42.546 L 343.875 42.546 L 343.875 42.546 Q 344.581 43.104 345.603 43.104 L 345.603 43.104 L 345.603 43.104 Q 346.626 43.104 347.6 42.764 L 347.6 42.764 L 347.6 42.764 Q 348.574 42.424 349.158 42.181 L 349.158 42.181 L 349.158 42.181 Z  M 354.953 54.222 L 352.031 54.222 L 353.346 48.445 L 351.301 48.445 L 351.301 41.647 L 356.95 41.647 L 356.95 48.445 L 354.953 54.222 L 354.953 54.222 Z  M 180.963 48.639 L 174.243 48.639 L 174.243 25.819 L 165.332 42.813 L 161.68 42.813 L 152.769 25.819 L 152.769 48.639 L 146.049 48.639 L 146.049 14.167 L 153.256 14.167 L 163.482 33.782 L 173.805 14.167 L 180.963 14.167 L 180.963 48.639 L 180.963 48.639 Z  M 190.313 48.639 L 184.957 48.639 L 184.957 41.647 L 190.313 41.647 L 190.313 48.639 L 190.313 48.639 Z  M 8.824 48.639 L 22.021 14.167 L 27.962 14.167 L 41.11 48.639 L 34.195 48.639 L 30.981 40.045 L 18.904 40.045 L 15.739 48.639 L 8.824 48.639 L 8.824 48.639 Z  M 20.024 35.336 L 29.763 35.336 L 24.991 21.79 L 20.024 35.336 L 20.024 35.336 Z  M 48.414 49.124 L 48.414 49.124 L 48.414 49.124 Q 46.563 49.124 44.957 48.517 L 44.957 48.517 L 44.957 48.517 Q 43.35 47.911 42.181 46.818 L 42.181 46.818 L 42.181 46.818 Q 41.012 45.726 40.355 44.269 L 40.355 44.269 L 40.355 44.269 Q 39.697 42.813 39.697 41.065 L 39.697 41.065 L 39.697 41.065 Q 39.697 39.268 40.501 37.739 L 40.501 37.739 L 40.501 37.739 Q 41.304 36.21 42.741 35.141 L 42.741 35.141 L 42.741 35.141 Q 44.177 34.073 46.174 33.466 L 46.174 33.466 L 46.174 33.466 Q 48.17 32.859 50.557 32.859 L 50.557 32.859 L 50.557 32.859 Q 52.261 32.859 53.892 33.151 L 53.892 33.151 L 53.892 33.151 Q 55.523 33.442 56.79 33.976 L 56.79 33.976 L 56.79 32.52 L 56.79 32.52 Q 56.79 29.995 55.353 28.635 L 55.353 28.635 L 55.353 28.635 Q 53.917 27.276 51.092 27.276 L 51.092 27.276 L 51.092 27.276 Q 49.047 27.276 47.099 28.004 L 47.099 28.004 L 47.099 28.004 Q 45.151 28.733 43.106 30.141 L 43.106 30.141 L 41.11 26.014 L 41.11 26.014 Q 46.028 22.761 51.725 22.761 L 51.725 22.761 L 51.725 22.761 Q 57.228 22.761 60.271 25.455 L 60.271 25.455 L 60.271 25.455 Q 63.315 28.15 63.315 33.248 L 63.315 33.248 L 63.315 41.162 L 63.315 41.162 Q 63.315 42.181 63.68 42.618 L 63.68 42.618 L 63.68 42.618 Q 64.045 43.055 64.873 43.104 L 64.873 43.104 L 64.873 48.639 L 64.873 48.639 Q 63.217 48.979 62 48.979 L 62 48.979 L 62 48.979 Q 60.15 48.979 59.151 48.153 L 59.151 48.153 L 59.151 48.153 Q 58.153 47.328 57.91 45.968 L 57.91 45.968 L 57.763 44.56 L 57.763 44.56 Q 56.059 46.794 53.624 47.959 L 53.624 47.959 L 53.624 47.959 Q 51.19 49.124 48.414 49.124 Z  M 50.264 44.366 L 50.264 44.366 L 50.264 44.366 Q 51.92 44.366 53.405 43.784 L 53.405 43.784 L 53.405 43.784 Q 54.89 43.201 55.718 42.23 L 55.718 42.23 L 55.718 42.23 Q 56.79 41.405 56.79 40.385 L 56.79 40.385 L 56.79 37.472 L 56.79 37.472 Q 55.621 37.035 54.257 36.768 L 54.257 36.768 L 54.257 36.768 Q 52.894 36.501 51.628 36.501 L 51.628 36.501 L 51.628 36.501 Q 49.096 36.501 47.489 37.642 L 47.489 37.642 L 47.489 37.642 Q 45.882 38.783 45.882 40.531 L 45.882 40.531 L 45.882 40.531 Q 45.882 42.181 47.148 43.274 L 47.148 43.274 L 47.148 43.274 Q 48.414 44.366 50.264 44.366 Z  M 82.16 22.906 L 82.16 28.83 L 82.16 28.83 Q 79.19 28.878 76.852 29.971 L 76.852 29.971 L 76.852 29.971 Q 74.515 31.063 73.492 33.248 L 73.492 33.248 L 73.492 48.639 L 66.967 48.639 L 66.967 23.198 L 72.957 23.198 L 72.957 28.635 L 72.957 28.635 Q 73.638 27.325 74.563 26.281 L 74.563 26.281 L 74.563 26.281 Q 75.489 25.237 76.56 24.46 L 76.56 24.46 L 76.56 24.46 Q 77.631 23.683 78.727 23.27 L 78.727 23.27 L 78.727 23.27 Q 79.823 22.858 80.845 22.858 L 80.845 22.858 L 80.845 22.858 Q 81.381 22.858 81.649 22.858 L 81.649 22.858 L 81.649 22.858 Q 81.917 22.858 82.16 22.906 L 82.16 22.906 L 82.16 22.906 Z  M 93.896 49.124 L 93.896 49.124 L 93.896 49.124 Q 90.779 49.124 88.296 48.056 L 88.296 48.056 L 88.296 48.056 Q 85.812 46.988 84.083 45.167 L 84.083 45.167 L 84.083 45.167 Q 82.355 43.347 81.43 40.968 L 81.43 40.968 L 81.43 40.968 Q 80.504 38.589 80.504 35.967 L 80.504 35.967 L 80.504 35.967 Q 80.504 33.296 81.43 30.917 L 81.43 30.917 L 81.43 30.917 Q 82.355 28.538 84.083 26.718 L 84.083 26.718 L 84.083 26.718 Q 85.812 24.897 88.296 23.829 L 88.296 23.829 L 88.296 23.829 Q 90.779 22.761 93.896 22.761 L 93.896 22.761 L 93.896 22.761 Q 97.012 22.761 99.471 23.829 L 99.471 23.829 L 99.471 23.829 Q 101.93 24.897 103.659 26.718 L 103.659 26.718 L 103.659 26.718 Q 105.388 28.538 106.313 30.917 L 106.313 30.917 L 106.313 30.917 Q 107.238 33.296 107.238 35.967 L 107.238 35.967 L 107.238 35.967 Q 107.238 38.589 106.313 40.968 L 106.313 40.968 L 106.313 40.968 Q 105.388 43.347 103.683 45.167 L 103.683 45.167 L 103.683 45.167 Q 101.979 46.988 99.496 48.056 L 99.496 48.056 L 99.496 48.056 Q 97.012 49.124 93.896 49.124 Z  M 87.224 35.967 L 87.224 35.967 L 87.224 35.967 Q 87.224 37.666 87.736 39.05 L 87.736 39.05 L 87.736 39.05 Q 88.247 40.434 89.148 41.453 L 89.148 41.453 L 89.148 41.453 Q 90.049 42.473 91.266 43.031 L 91.266 43.031 L 91.266 43.031 Q 92.483 43.589 93.896 43.589 L 93.896 43.589 L 93.896 43.589 Q 95.308 43.589 96.525 43.031 L 96.525 43.031 L 96.525 43.031 Q 97.743 42.473 98.643 41.453 L 98.643 41.453 L 98.643 41.453 Q 99.544 40.434 100.056 39.026 L 100.056 39.026 L 100.056 39.026 Q 100.567 37.618 100.567 35.918 L 100.567 35.918 L 100.567 35.918 Q 100.567 34.267 100.056 32.859 L 100.056 32.859 L 100.056 32.859 Q 99.544 31.451 98.643 30.432 L 98.643 30.432 L 98.643 30.432 Q 97.743 29.412 96.525 28.854 L 96.525 28.854 L 96.525 28.854 Q 95.308 28.296 93.896 28.296 L 93.896 28.296 L 93.896 28.296 Q 92.483 28.296 91.266 28.878 L 91.266 28.878 L 91.266 28.878 Q 90.049 29.461 89.148 30.48 L 89.148 30.48 L 89.148 30.48 Q 88.247 31.5 87.736 32.908 L 87.736 32.908 L 87.736 32.908 Q 87.224 34.316 87.224 35.967 Z  M 132.901 32.762 L 132.901 48.639 L 126.376 48.639 L 126.376 34.365 L 126.376 34.365 Q 126.376 31.306 125.304 29.898 L 125.304 29.898 L 125.304 29.898 Q 124.233 28.49 122.334 28.49 L 122.334 28.49 L 122.334 28.49 Q 121.36 28.49 120.337 28.878 L 120.337 28.878 L 120.337 28.878 Q 119.315 29.267 118.414 29.971 L 118.414 29.971 L 118.414 29.971 Q 117.513 30.675 116.783 31.646 L 116.783 31.646 L 116.783 31.646 Q 116.052 32.617 115.711 33.782 L 115.711 33.782 L 115.711 48.639 L 109.186 48.639 L 109.186 23.198 L 115.078 23.198 L 115.078 27.907 L 115.078 27.907 Q 116.49 25.48 119.169 24.12 L 119.169 24.12 L 119.169 24.12 Q 121.847 22.761 125.207 22.761 L 125.207 22.761 L 125.207 22.761 Q 127.593 22.761 129.103 23.635 L 129.103 23.635 L 129.103 23.635 Q 130.612 24.509 131.44 25.917 L 131.44 25.917 L 131.44 25.917 Q 132.268 27.325 132.584 29.121 L 132.584 29.121 L 132.584 29.121 Q 132.901 30.917 132.901 32.762 L 132.901 32.762 L 132.901 32.762 Z " fill="rgb(0,0,0)"/></g></svg>